<?xml version="1.0" encoding="utf-8"?>
<!-- Generator: Adobe Illustrator 24.3.0, SVG Export Plug-In . SVG Version: 6.00 Build 0)  -->
<svg version="1.1" id="Calque_1" xmlns="http://www.w3.org/2000/svg" xmlns:xlink="http://www.w3.org/1999/xlink" x="0px" y="0px"
	 viewBox="0 0 20 20" style="enable-background:new 0 0 20 20;" xml:space="preserve">
<style type="text/css">
	.st0{fill:#FFFFFF;}
</style>
<path class="st0" d="M2,3.1C2,2.5,2.5,2,3.1,2C11.3,2,18,8.6,18,16.9c0,0.6-0.5,1.1-1.1,1.1s-1.1-0.5-1.1-1.1
	c0-6.9-5.6-12.6-12.6-12.6C2.5,4.3,2,3.8,2,3.1z M2,15.7c0-1.3,1-2.3,2.3-2.3s2.3,1,2.3,2.3S5.5,18,4.3,18S2,17,2,15.7z M3.1,6.6
	c5.7,0,10.3,4.6,10.3,10.3c0,0.6-0.5,1.1-1.1,1.1s-1.1-0.5-1.1-1.1c0-4.4-3.6-8-8-8C2.5,8.9,2,8.3,2,7.7S2.5,6.6,3.1,6.6z"/>
</svg>
