<?xml version="1.0" encoding="utf-8"?>
<!-- Generator: Adobe Illustrator 24.3.0, SVG Export Plug-In . SVG Version: 6.00 Build 0)  -->
<svg version="1.1" id="Calque_1" xmlns="http://www.w3.org/2000/svg" xmlns:xlink="http://www.w3.org/1999/xlink" x="0px" y="0px"
	 viewBox="0 0 20 20" style="enable-background:new 0 0 20 20;" xml:space="preserve">
<style type="text/css">
	.st0{fill:#FFFFFF;}
</style>
<path class="st0" d="M15.6,4.9C15.6,4.9,15.6,4.9,15.6,4.9c-1.1-0.5-2.2-0.8-3.3-1c0,0,0,0-0.1,0c-0.1,0.3-0.3,0.5-0.4,0.8
	c-1.2-0.2-2.4-0.2-3.7,0C8.1,4.5,7.9,4.2,7.8,3.9c0,0,0,0-0.1,0c-1.1,0.2-2.2,0.5-3.3,1c0,0,0,0,0,0C2.4,8,1.8,11.1,2.1,14
	c0,0,0,0,0,0c1.2,0.9,2.6,1.6,4,2c0,0,0,0,0.1,0c0.3-0.4,0.6-0.9,0.8-1.3c0,0,0-0.1,0-0.1c0,0,0,0,0,0c-0.4-0.2-0.8-0.4-1.2-0.6
	c0,0,0,0,0-0.1c0,0,0,0,0,0c0.1-0.1,0.2-0.1,0.2-0.2c0,0,0,0,0.1,0c2.6,1.2,5.5,1.2,8,0c0,0,0,0,0.1,0c0.1,0.1,0.2,0.1,0.2,0.2
	c0,0,0,0.1,0,0.1c0,0,0,0,0,0c-0.4,0.2-0.8,0.4-1.2,0.6c0,0,0,0,0,0.1c0,0,0,0,0,0c0.2,0.5,0.5,0.9,0.8,1.3c0,0,0,0,0.1,0
	c1.4-0.4,2.8-1.1,4-2c0,0,0,0,0,0C18.3,10.6,17.4,7.6,15.6,4.9z M7.3,12.2c-0.8,0-1.4-0.7-1.4-1.6S6.5,9,7.3,9
	c0.8,0,1.5,0.7,1.4,1.6C8.8,11.5,8.1,12.2,7.3,12.2z M12.7,12.2c-0.8,0-1.4-0.7-1.4-1.6S11.9,9,12.7,9c0.8,0,1.5,0.7,1.4,1.6
	C14.1,11.5,13.5,12.2,12.7,12.2z"/>
</svg>
