<?xml version="1.0" encoding="utf-8"?>
<!-- Generator: Adobe Illustrator 24.3.0, SVG Export Plug-In . SVG Version: 6.00 Build 0)  -->
<svg version="1.1" id="Calque_1" xmlns="http://www.w3.org/2000/svg" xmlns:xlink="http://www.w3.org/1999/xlink" x="0px" y="0px"
	 viewBox="0 0 20 20" style="enable-background:new 0 0 20 20;" xml:space="preserve">
<style type="text/css">
	.st0{fill:#FFFFFF;}
</style>
<path class="st0" d="M7.4,14.8c0,0.1-0.1,0.1-0.2,0.1c-0.1,0-0.2,0-0.2-0.1c0-0.1,0.1-0.1,0.2-0.1C7.3,14.6,7.4,14.7,7.4,14.8z
	 M6.3,14.6c0,0.1,0,0.1,0.1,0.2c0.1,0,0.2,0,0.2-0.1c0-0.1,0-0.1-0.1-0.2C6.5,14.5,6.4,14.6,6.3,14.6z M7.8,14.6
	c-0.1,0-0.2,0.1-0.1,0.2c0,0.1,0.1,0.1,0.2,0.1c0.1,0,0.2-0.1,0.1-0.1C8,14.6,7.9,14.6,7.8,14.6z M9.9,2.2C5.4,2.2,2,5.6,2,10.1
	c0,3.6,2.3,6.6,5.5,7.7C7.9,17.9,8,17.6,8,17.4c0-0.2,0-1.3,0-2c0,0-2.3,0.5-2.7-1c0,0-0.4-0.9-0.9-1.2c0,0-0.7-0.5,0.1-0.5
	c0,0,0.8,0.1,1.2,0.8c0.7,1.2,1.9,0.9,2.4,0.7c0.1-0.5,0.3-0.9,0.5-1.1C6.7,13,4.9,12.7,4.9,9.6c0-0.9,0.2-1.3,0.8-1.9
	C5.6,7.5,5.3,6.7,5.8,5.5C6.4,5.3,8,6.4,8,6.4c0.6-0.2,1.3-0.3,2-0.3s1.4,0.1,2,0.3c0,0,1.6-1.1,2.2-0.9c0.4,1.1,0.2,2,0.1,2.2
	c0.5,0.6,0.8,1,0.8,1.9c0,3.1-1.9,3.4-3.7,3.6c0.3,0.3,0.5,0.7,0.5,1.5c0,1.1,0,2.4,0,2.7c0,0.2,0.1,0.5,0.6,0.4
	c3.2-1.1,5.4-4.1,5.4-7.7C18,5.6,14.4,2.2,9.9,2.2z M5.1,13.3c0,0,0,0.1,0,0.2c0.1,0.1,0.1,0.1,0.2,0c0,0,0-0.1,0-0.2
	C5.3,13.3,5.2,13.3,5.1,13.3z M4.8,13.1c0,0,0,0.1,0.1,0.1c0.1,0,0.1,0,0.1,0c0,0,0-0.1-0.1-0.1C4.9,13,4.8,13,4.8,13.1z M5.8,14.2
	c-0.1,0,0,0.1,0,0.2c0.1,0.1,0.2,0.1,0.2,0c0,0,0-0.1,0-0.2C6,14.2,5.9,14.2,5.8,14.2z M5.5,13.7c-0.1,0-0.1,0.1,0,0.2
	S5.6,14,5.6,14c0.1,0,0.1-0.1,0-0.2C5.6,13.7,5.5,13.7,5.5,13.7z"/>
</svg>
